<svg width="321" height="157" viewBox="0 0 321 157" fill="none" xmlns="http://www.w3.org/2000/svg">
<path opacity="0.18" d="M18.3175 128.17C-2.28618 112.247 -6.07709 82.6315 9.84611 62.0278C10.982 60.5566 12.2069 59.1538 13.507 57.8263C20.4867 50.7851 29.5055 46.262 37.2447 40.1651C50.6292 29.6888 60.5444 14.5593 75.4754 6.56009C93.4583 -3.07457 115.246 -0.535888 134.994 4.2746C154.742 9.08509 174.58 15.9689 194.834 14.2309C206.891 13.1839 218.504 9.10561 230.451 7.11436C242.399 5.1231 255.503 5.48577 265.5 12.4449C280.055 22.6475 283.51 43.2649 295.451 56.5604C301.233 63.0063 308.911 67.591 314.036 74.6049C322.275 85.875 322.056 102.797 313.543 113.848C302.636 127.979 282.949 130.223 267.067 137.99C258.226 142.314 250.309 148.555 241.16 152.182C221.946 159.798 200.329 154.844 180.629 148.685C160.928 142.527 140.633 135.123 120.234 138.14C101.191 140.973 84.022 152.729 64.8143 154.515C55.8981 155.343 45.7229 153.756 40.276 146.057C34.4186 137.805 26.2483 134.26 18.3175 128.17Z" fill="#BDBDBD"/>
<path d="M23.4834 84.5064C26.9322 80.6699 30.6113 76.4525 34.5208 71.8541L59.4902 42.6353C65.0123 36.3058 67.2021 33.4318 70.1581 28.9224H93.7795C93.102 35.2656 92.7941 41.6363 92.8557 48.0138V85.4302H96.195C100.02 85.396 103.838 85.0881 107.622 84.5064V105.445C103.879 104.987 100.116 104.754 96.3455 104.761H92.8968V110.516C92.7873 115.251 93.0952 119.986 93.8205 124.667H70.0829C70.7329 119.904 71.0409 115.101 71.0066 110.29V104.652H38.4486C30.9694 104.652 27.7807 104.768 23.4902 105.11V84.5201L23.4834 84.5064ZM71.1024 72.3194C71.1024 67.1394 71.3283 60.8167 71.7936 55.7461C69.5081 58.9691 67.7632 61.2683 64.6634 65.1755L47.8643 85.656H71.1024V72.3126V72.3194Z" fill="#797979"/>
<path d="M201.108 84.0821C204.557 80.2456 208.236 76.0281 212.146 71.4298L237.115 42.2042C241.009 37.9069 244.581 33.3222 247.783 28.4912H271.404C270.727 34.8345 270.419 41.212 270.481 47.5895V84.9854H273.82C277.631 84.9443 281.436 84.6364 285.213 84.0616V105.001C281.47 104.535 277.707 104.303 273.936 104.309H270.488V110.064C270.378 114.799 270.686 119.535 271.411 124.215H247.708C248.358 119.473 248.666 114.69 248.632 109.9V104.262H216.074C208.594 104.262 205.371 104.378 201.115 104.727V84.0958L201.108 84.0821ZM248.734 71.8882C248.734 66.7082 248.96 60.3855 249.419 55.3218C247.133 58.5379 245.395 60.8371 242.288 64.7512L225.53 85.2317H248.768L248.741 71.8814L248.734 71.8882Z" fill="#797979"/>
<path d="M201.108 84.0821C204.557 80.2456 208.236 76.0281 212.146 71.4298L237.115 42.2042C241.009 37.9069 244.581 33.3222 247.783 28.4912H271.404C270.727 34.8345 270.419 41.212 270.481 47.5895V84.9854H273.82C277.631 84.9443 281.436 84.6364 285.213 84.0616V105.001C281.47 104.535 277.707 104.303 273.936 104.309H270.488V110.064C270.378 114.799 270.686 119.535 271.411 124.215H247.708C248.358 119.473 248.666 114.69 248.632 109.9V104.262H216.074C208.594 104.262 205.371 104.378 201.115 104.727V84.0958L201.108 84.0821ZM248.734 71.8882C248.734 66.7082 248.96 60.3855 249.419 55.3218C247.133 58.5379 245.395 60.8371 242.288 64.7512L225.53 85.2317H248.768L248.741 71.8814L248.734 71.8882Z" fill="url(#paint0_linear_1546_245)"/>
<path d="M126.666 115.169C122.998 111.556 120.138 107.197 118.284 102.394C115.252 93.9426 113.733 85.0265 113.795 76.0487C113.795 63.9712 116.676 51.4352 121.048 44.1886C128.062 32.4464 140.023 26.0073 154.523 26.0073C165.684 26.0073 175.462 29.8188 182.476 36.6752C186.144 40.2882 189.004 44.6403 190.858 49.4439C193.897 57.929 195.416 66.8862 195.34 75.905C195.34 87.9894 192.466 100.642 188.094 107.902C181.19 119.418 169.119 125.885 154.503 125.885C143.226 125.885 133.68 122.183 126.666 115.176V115.169ZM137.334 75.1386C137.334 95.7081 143.198 106.314 154.592 106.314C165.985 106.314 171.616 95.9613 171.616 75.4808C171.616 55.0003 165.636 45.4546 154.475 45.4546C143.698 45.4546 137.361 56.3825 137.361 75.1386H137.334Z" fill="#797979"/>
<path d="M126.666 115.169C122.998 111.556 120.138 107.197 118.284 102.394C115.252 93.9426 113.733 85.0265 113.795 76.0487C113.795 63.9712 116.676 51.4352 121.048 44.1886C128.062 32.4464 140.023 26.0073 154.523 26.0073C165.684 26.0073 175.462 29.8188 182.476 36.6752C186.144 40.2882 189.004 44.6403 190.858 49.4439C193.897 57.929 195.416 66.8862 195.34 75.905C195.34 87.9894 192.466 100.642 188.094 107.902C181.19 119.418 169.119 125.885 154.503 125.885C143.226 125.885 133.68 122.183 126.666 115.176V115.169ZM137.334 75.1386C137.334 95.7081 143.198 106.314 154.592 106.314C165.985 106.314 171.616 95.9613 171.616 75.4808C171.616 55.0003 165.636 45.4546 154.475 45.4546C143.698 45.4546 137.361 56.3825 137.361 75.1386H137.334Z" fill="url(#paint1_linear_1546_245)"/>
<path d="M26.0625 84.0821C29.5158 80.2456 33.1973 76.0281 37.1068 71.4298L62.0762 42.2042C65.9697 37.9069 69.5417 33.3222 72.7441 28.4912H96.3654C95.688 34.8345 95.3801 41.212 95.4416 47.5895V84.9854H98.7809C102.606 84.9443 106.424 84.6364 110.208 84.0616V105.001C106.465 104.535 102.702 104.303 98.9315 104.309H95.4827V110.064C95.3732 114.799 95.6811 119.535 96.4065 124.215H72.6688C73.3189 119.473 73.6268 114.69 73.5926 109.9V104.262H41.0277C33.5554 104.262 30.3598 104.378 26.0693 104.727V84.0958L26.0625 84.0821ZM73.6952 71.8882C73.6952 66.7082 73.921 60.3855 74.3795 55.3218C72.094 58.5379 70.3559 60.8371 67.2493 64.7512L50.4913 85.2317H73.6952V71.8814V71.8882Z" fill="#797979"/>
<path d="M193.424 49.8817C191.57 45.0712 188.71 40.7192 185.042 37.1062C178.021 30.2497 168.243 26.4451 157.089 26.4451C142.589 26.4451 130.628 32.8841 123.614 44.6127C119.242 51.8661 116.361 64.4089 116.361 76.4796C116.306 85.4642 117.832 94.3804 120.87 102.831C122.725 107.628 125.585 111.987 129.253 115.6C136.273 122.614 145.819 126.295 157.096 126.302C171.699 126.302 183.783 119.863 190.687 108.36C195.06 101.1 197.934 88.434 197.934 76.3633C198.002 67.3376 196.476 58.3736 193.424 49.8817ZM160.942 106.342C160.558 106.444 160.162 106.52 159.758 106.581C158.95 106.711 158.109 106.773 157.233 106.773C145.84 106.773 139.975 96.1664 139.975 75.5969C139.975 70.4101 140.454 65.8185 141.385 61.8976C141.481 61.5007 141.577 61.1107 141.679 60.7275C144.225 51.1818 149.569 45.8923 157.117 45.9197C168.27 45.9197 174.258 56.2728 174.258 75.9527C174.258 94.0382 169.769 104.227 160.942 106.342Z" fill="#797979"/>
<path d="M203.914 84.0821C207.363 80.2456 211.042 76.0281 214.952 71.4298L239.921 42.2042C245.443 35.8814 247.633 33.0006 250.589 28.4912H274.21C273.54 34.8413 273.238 41.2257 273.314 47.6168V85.0127H276.653C280.464 84.9717 284.269 84.6638 288.046 84.089V105.028C284.303 104.563 280.54 104.33 276.769 104.337H273.321V110.092C273.211 114.827 273.519 119.562 274.244 124.243H250.52C251.17 119.494 251.478 114.697 251.444 109.907V104.268H218.886C211.407 104.268 208.184 104.385 203.928 104.734V84.1026L203.914 84.0821ZM251.54 71.8882C251.54 66.7082 251.766 60.3855 252.231 55.3218C249.946 58.5379 248.201 60.8371 245.101 64.7512L228.302 85.2317H251.54V71.8814V71.8882Z" fill="#797979"/>
<path d="M169.447 82.4399C167.407 90.7676 164.828 99.0884 160.941 106.342C160.558 106.444 160.161 106.52 159.757 106.581C158.95 106.711 158.108 106.773 157.232 106.773C145.839 106.773 139.975 96.1665 139.975 75.5971C139.975 70.4102 140.454 65.8187 141.384 61.8978C141.48 61.5009 141.576 61.1109 141.678 60.7277C144.094 57.2036 147.372 54.9729 151.505 55.6503C153.79 56.0335 155.911 57.4363 158.211 57.9358C160.209 58.3943 162.323 58.1616 164.301 58.8596C167.996 60.1734 170.398 64.6281 170.925 69.1033C171.451 73.5716 170.514 78.0947 169.447 82.4399Z" fill="#68E1FD"/>
<path d="M159.757 106.581C158.95 106.711 158.108 106.773 157.232 106.773C145.839 106.773 139.975 96.1663 139.975 75.5969C139.975 70.41 140.454 65.8185 141.384 61.8976C142.212 61.4186 143.184 61.2612 144.128 61.4254C145.62 61.7744 142.678 69.9105 148.508 86.518C152.887 98.9993 158.614 98.3492 159.374 102.044C159.607 103.201 159.798 104.939 159.757 106.581Z" fill="url(#paint2_linear_1546_245)"/>
<path d="M175.866 35.5667C177.617 36.8463 178.432 39.0496 177.932 41.1572C180.833 41.4378 183.509 42.8611 185.35 45.1192C186.985 47.2815 187.977 49.8613 188.21 52.5642C188.429 55.2465 188.374 57.9494 188.032 60.625C187.991 61.5488 187.806 62.4589 187.471 63.321C186.67 64.8333 185.24 65.9076 183.564 66.2566C181.908 66.5851 180.211 66.6672 178.534 66.4961L174.531 66.284C174.401 66.284 174.271 66.2566 174.148 66.2019C173.984 66.065 173.888 65.8666 173.881 65.6544C173.607 64.019 173.19 63.3005 172.889 61.6651C172.15 58.2095 170.692 54.9386 168.626 52.0715C168.256 51.6404 167.996 51.134 167.866 50.5866C167.818 49.827 167.989 49.0743 168.352 48.4106C168.893 47.1036 169.344 45.7556 169.693 44.3802C170.015 42.7379 170.439 41.1162 170.952 39.5218C171.479 37.9137 172.554 36.5383 173.997 35.6488" fill="url(#paint3_linear_1546_245)"/>
<path d="M173.997 83.4183C173.997 83.4183 188.641 84.7116 195.326 75.8022C197.995 72.2645 192.048 55.616 192.048 55.616L185.288 67.714L174.62 70.1364L173.99 83.4251L173.997 83.4183Z" fill="url(#paint4_linear_1546_245)"/>
<path d="M139.633 57.3609C139.236 57.5046 138.853 57.6825 138.49 57.8878C138.148 58.0588 137.847 58.312 137.607 58.6131C137.368 58.9279 137.313 59.3384 137.457 59.7011C137.771 60.1869 138.36 60.4333 138.928 60.317C139.865 60.228 140.734 59.7627 141.672 59.5985C142.609 59.4342 143.492 58.791 142.828 57.792C142.164 56.7929 140.57 57.005 139.633 57.3609Z" fill="#FFAA71"/>
<path d="M142.623 59.5985C141.255 59.2426 139.818 59.8448 138.586 60.5359C138.292 60.6796 138.038 60.8781 137.826 61.1244C137.498 61.3844 137.443 61.8634 137.703 62.1919C137.861 62.3903 138.1 62.493 138.353 62.4793C138.634 62.5067 138.914 62.4861 139.188 62.4245L141.084 62.0961C141.521 62.0413 141.953 61.9182 142.356 61.7334C143.218 61.2339 143.951 59.9269 142.623 59.5985Z" fill="#FFAA71"/>
<path d="M139.975 62.1236C139.585 62.2741 139.201 62.452 138.832 62.6573C138.483 62.8421 138.182 63.1021 137.949 63.4169C137.716 63.7248 137.662 64.1354 137.799 64.498C138.113 64.9839 138.702 65.2302 139.27 65.1139C140.207 65.0249 141.076 64.5596 142.014 64.3954C142.951 64.2312 143.834 63.5948 143.17 62.5889C142.506 61.583 140.898 61.7678 139.975 62.1167V62.1236Z" fill="#FFAA71"/>
<path d="M142.931 64.0395C141.521 63.9232 140.221 64.799 139.119 65.6681C138.852 65.8665 138.627 66.106 138.455 66.3934C138.182 66.715 138.223 67.194 138.538 67.4677C138.722 67.6251 138.976 67.6867 139.215 67.6251C139.496 67.6046 139.769 67.5362 140.022 67.4267L141.829 66.7629C142.26 66.6329 142.664 66.4345 143.026 66.1744C143.779 65.5517 144.292 64.1627 142.931 64.0327V64.0395Z" fill="#FFAA71"/>
<path d="M183.311 42.5326C181.087 41.4719 178.644 40.9656 176.187 41.0477C175.77 41.0271 175.359 41.0956 174.969 41.2461C174.579 41.4172 174.333 41.8004 174.326 42.2246C174.401 42.5873 174.607 42.9089 174.908 43.121C175.804 43.9422 176.817 44.6265 177.912 45.1602C178.24 45.2902 178.541 45.4818 178.795 45.735C179.048 45.995 179.102 46.3851 178.925 46.6998C178.671 47.0488 178.097 47.0625 177.905 47.4594C177.652 47.9521 178.288 48.4447 178.836 48.5337C179.417 48.6363 180.019 48.5816 180.574 48.3763C180.964 48.1779 181.388 48.0547 181.826 48.0273C182.257 48.1163 182.661 48.301 183.017 48.5679C184.221 49.2522 187.964 49.2796 187.724 47.1857C187.505 45.2491 184.857 43.3332 183.318 42.5326H183.311Z" fill="#FFAA71"/>
<path d="M164.903 59.3317C164.903 59.3317 181.75 66.2703 183.673 65.9144C185.603 65.5586 182.482 48.9306 182.482 48.9306L188.224 46.303C188.224 46.303 201.177 71.9772 190.571 75.7133C184.015 77.9099 176.906 77.8346 170.398 75.5012L164.896 59.3317H164.903Z" fill="#68E1FD"/>
<path d="M173.867 49.6969C173.806 51.1886 173.457 52.653 172.834 54.0078C171.595 56.0538 169.46 57.4019 167.079 57.6414C166.224 57.6961 165.375 57.8193 164.534 57.9972C163.747 58.1614 163.09 58.702 162.789 59.4547C162.111 61.097 161.407 62.7666 159.224 62.2123C159.018 62.1645 158.82 62.096 158.628 62.0071C157.944 61.6855 157.321 61.2338 156.808 60.6727C156.165 60.0227 155.611 59.2973 155.145 58.5104C154.906 58.1477 154.748 57.7372 154.673 57.3061C154.625 56.7792 154.694 56.2454 154.858 55.7459C155.617 52.7009 155.741 49.2452 156.822 46.2755C157.93 43.2646 160.045 40.726 162.809 39.0974C165.546 37.503 169.344 37.4825 171.671 39.6516C172.943 40.9244 173.744 42.5872 173.956 44.3732C174.141 46.1455 174.107 47.9314 173.867 49.69V49.6969Z" fill="#FFAA71"/>
<path d="M155.337 45.8856C155.481 44.4554 155.474 42.9979 155.755 41.5883C155.967 40.1513 156.692 38.8306 157.787 37.8795C158.061 37.6605 158.368 37.4826 158.704 37.3594C158.998 37.2499 159.313 37.1952 159.621 37.1062C160.517 36.7846 161.372 36.3604 162.166 35.8403C163.371 35.115 164.691 34.6018 166.067 34.3144C166.997 34.1707 167.935 34.1091 168.879 34.1159C170.603 34.0886 172.341 34.068 174.08 34.068C174.49 34.0407 174.901 34.1023 175.277 34.2665C175.694 34.5197 175.996 34.9234 176.126 35.3955C176.454 36.4493 176.454 37.5716 176.126 38.6253C175.79 39.6654 175.339 40.6645 174.791 41.6088C174.524 42.2041 174.148 42.7447 173.676 43.2032C173.272 42.5052 172.916 41.7799 172.547 41.0477C171.383 42.2589 169.543 42.5736 167.866 42.4436C166.19 42.3136 164.548 41.8825 162.871 41.8551C162.064 41.773 161.263 42.0057 160.633 42.5189C160.257 42.9568 159.997 43.4769 159.874 44.0448C159.518 45.2971 159.231 46.5698 159.012 47.8563C158.813 47.4799 158.013 46.5082 157.595 46.5219C157.349 46.5425 157.13 46.6725 156.979 46.8641C156.288 47.6236 156.63 50.4223 157.267 51.2298C157.397 51.3529 157.493 51.5035 157.547 51.6746C157.575 51.9004 157.506 52.1262 157.363 52.3041C157.007 52.7283 156.466 52.9473 155.912 52.8994C155.241 52.8994 155.111 51.6198 155.043 51.1477C154.762 49.3891 155.166 47.6099 155.33 45.8856H155.337Z" fill="#606060"/>
<path d="M158.013 49.1016C157.917 48.9032 157.876 48.6842 157.889 48.4721C157.903 48.2531 157.883 48.0341 157.821 47.822C157.753 47.6304 157.616 47.4662 157.431 47.3704C157.376 47.3567 157.321 47.3567 157.274 47.3704C157.185 47.4114 157.116 47.4867 157.096 47.5825C156.829 48.4173 156.856 49.3206 157.178 50.1349C157.267 50.4291 157.479 50.6754 157.766 50.7918C158.019 50.8397 158.279 50.7644 158.457 50.5796C158.704 50.3196 158.779 49.9433 158.656 49.6148C158.526 49.3069 158.17 49.3753 158.006 49.1016H158.013Z" fill="url(#paint5_linear_1546_245)"/>
<path d="M164.534 57.9835C163.747 58.1478 163.09 58.6883 162.789 59.4411C162.111 61.0833 161.407 62.753 159.224 62.1987C159.019 62.1508 158.82 62.0824 158.628 61.9934C158.444 61.836 158.293 61.6376 158.184 61.4186C157.985 60.8986 158.006 60.3238 158.245 59.8174C158.786 58.5104 160.045 57.6414 161.461 57.6072C162.043 57.6345 162.625 57.7098 163.193 57.833C163.542 57.8809 163.952 57.833 164.274 57.8741C164.37 57.8877 164.452 57.9288 164.534 57.9835Z" fill="url(#paint6_linear_1546_245)"/>
<defs>
<linearGradient id="paint0_linear_1546_245" x1="323.861" y1="141.281" x2="104.44" y2="-45.7737" gradientUnits="userSpaceOnUse">
<stop stop-opacity="0"/>
<stop offset="0.99"/>
</linearGradient>
<linearGradient id="paint1_linear_1546_245" x1="225.223" y1="78.8132" x2="-14.0424" y2="69.1101" gradientUnits="userSpaceOnUse">
<stop stop-opacity="0"/>
<stop offset="0.99"/>
</linearGradient>
<linearGradient id="paint2_linear_1546_245" x1="179.608" y1="103.208" x2="58.9695" y2="28.97" gradientUnits="userSpaceOnUse">
<stop stop-opacity="0"/>
<stop offset="0.99"/>
</linearGradient>
<linearGradient id="paint3_linear_1546_245" x1="197.297" y1="31.7005" x2="128.582" y2="105.261" gradientUnits="userSpaceOnUse">
<stop stop-opacity="0"/>
<stop offset="0.99"/>
</linearGradient>
<linearGradient id="paint4_linear_1546_245" x1="187.525" y1="88.8035" x2="177.453" y2="41.294" gradientUnits="userSpaceOnUse">
<stop stop-opacity="0"/>
<stop offset="0.99"/>
</linearGradient>
<linearGradient id="paint5_linear_1546_245" x1="157.232" y1="49.2385" x2="159.203" y2="48.5542" gradientUnits="userSpaceOnUse">
<stop stop-opacity="0"/>
<stop offset="0.99"/>
</linearGradient>
<linearGradient id="paint6_linear_1546_245" x1="157.746" y1="56.8408" x2="169.392" y2="66.3865" gradientUnits="userSpaceOnUse">
<stop stop-opacity="0"/>
<stop offset="0.99"/>
</linearGradient>
</defs>
</svg>
