p<svg width="1069" height="679" viewBox="0 0 1069 679" fill="none" xmlns="http://www.w3.org/2000/svg">
<path d="M496.283 262.531C513.941 260.578 533.495 262.387 551.348 262.531L551.332 312.732L495.984 312.728C498.427 300.198 496.415 276.004 496.283 262.531Z" fill="#B7B6B7"/>
<path d="M667.838 259.724C686.31 259.708 704.802 259.489 723.27 259.736C723.171 267.854 723.211 275.808 723.949 283.902C724.037 293.462 724.05 303.021 723.989 312.581L667.938 312.629L667.838 259.724Z" fill="#B7B6B7"/>
<path d="M581.292 250.5L637.595 250.688C637.906 271.353 637.963 292.02 637.766 312.688C618.978 312.832 600.189 312.859 581.4 312.768L581.292 250.5Z" fill="#B7B6B7"/>
<path d="M495.572 183.855C514.152 184.263 532.808 183.852 551.396 183.764L551.392 220.292L551.348 262.531C533.495 262.388 513.941 260.579 496.283 262.531C496.415 276.004 498.428 300.198 495.984 312.728C493.46 302.035 495.457 269.907 495.576 256.873C493.7 232.823 496.315 208.034 495.572 183.855Z" fill="#E0DFDF"/>
<path d="M926.459 228.997C944.702 228.883 962.944 228.91 981.184 229.077C982.051 247.709 981.444 266.556 981.372 285.204C981.336 294.021 980.573 303.884 982.011 312.593L926.627 312.625C926.403 284.748 926.347 256.872 926.459 228.997Z" fill="#B7B6B7"/>
<path d="M668.03 177.163C686.219 177.878 705.373 178.569 723.502 177.263C722.935 197.276 724.636 217.286 723.905 237.279C724.025 252.736 724.72 268.473 723.949 283.902C723.211 275.808 723.171 267.854 723.271 259.736C704.802 259.489 686.31 259.708 667.838 259.724C667.088 245.205 667.783 230.363 667.866 215.82C667.966 202.946 668.27 190.037 668.03 177.163Z" fill="#E0DFDF"/>
<path d="M582.111 152.916C600.439 153.407 618.959 153.643 637.283 152.904L637.395 198.733C637.599 216.019 638.194 233.413 637.595 250.687L581.292 250.499L581.468 198.729C582.019 183.462 582.233 168.191 582.111 152.916Z" fill="#E0DFDF"/>
<path d="M753.877 210.054C772.433 209.747 791.54 211.504 810.004 210.09L810.012 312.637L753.921 312.685L753.877 210.054Z" fill="#B7B6B7"/>
<path d="M839.817 190.596L896.135 190.755L896.155 312.716L839.849 312.78L839.817 190.596Z" fill="#B7B6B7"/>
<path d="M926.555 98.8863C944.992 99.0619 963.428 99.054 981.863 98.8623C981.843 119.047 982.474 139.432 981.895 159.589L982.426 262.699C982.502 278.707 984.203 296.868 982.011 312.592C980.573 303.884 981.336 294.021 981.372 285.204C981.444 266.556 982.051 247.709 981.184 229.077C962.944 228.909 944.702 228.883 926.459 228.997C925.832 205.761 926.447 182.354 926.471 159.102L926.555 98.8863Z" fill="#E0DFDF"/>
<path d="M754.141 50.8379C772.72 51.0455 791.299 51.0762 809.881 50.9297C809.694 75.442 809.701 99.9542 809.901 124.466C809.948 152.929 810.831 181.656 810.004 210.09C791.54 211.504 772.433 209.747 753.877 210.054L753.897 124.782L754.141 50.8379Z" fill="#E0DFDF"/>
<path d="M839.925 0.0495054L895.808 0L895.908 88.0612C896.299 122.026 897.864 156.886 896.135 190.755L839.817 190.596C839.449 156.411 839.877 122.17 839.905 87.9814C840.36 58.9196 841.526 29.0589 839.925 0.0495054Z" fill="#E0DFDF"/>
<path d="M124.997 186.591C125.417 181.693 125.893 176.8 126.423 171.913C126.659 169.876 126.945 167.845 127.28 165.819C127.616 163.796 128 161.782 128.435 159.778C128.869 157.773 129.352 155.781 129.883 153.8C130.415 151.817 130.995 149.849 131.624 147.898C132.252 145.944 132.927 144.008 133.65 142.088C134.373 140.169 135.143 138.268 135.959 136.386C136.775 134.504 137.637 132.643 138.545 130.804C139.452 128.964 140.404 127.149 141.401 125.357C142.397 123.563 143.437 121.795 144.52 120.054C145.603 118.311 146.728 116.595 147.894 114.907C149.063 113.222 150.27 111.565 151.516 109.936C152.764 108.309 154.053 106.713 155.381 105.148C156.707 103.583 158.07 102.051 159.47 100.552C160.873 99.0561 162.311 97.5946 163.783 96.1677C165.257 94.7382 166.765 93.3473 168.307 91.9949C169.848 90.64 171.421 89.3249 173.027 88.0498C196.67 69.2823 229.485 58.1336 259.781 61.6195C257.381 61.8951 254.757 61.6874 252.892 63.2527C251.088 75.0722 252.022 87.6824 252.078 99.6297L252.297 159.087C252.293 167.48 253.332 177.599 251.695 185.813L249.486 186.795C228.598 184.639 206.273 186.076 185.234 186.072C165.52 186.064 144.572 184.643 124.997 186.591Z" fill="#B7B6B7"/>
<path d="M124.997 186.59C144.572 184.642 165.52 186.063 185.234 186.071C206.273 186.075 228.598 184.638 249.486 186.794L251.695 185.812C258.411 195.591 326.202 278.212 333.038 281.49C317.201 299.93 285.097 310.388 261.533 312.137C248.831 313.076 230.615 313.191 218.652 308.695C213.687 307.316 208.821 305.651 204.053 303.7C199.285 301.749 194.648 299.523 190.141 297.023C185.634 294.526 181.29 291.774 177.108 288.766C172.926 285.755 168.935 282.51 165.136 279.031C138.558 254.537 126.474 222.117 124.997 186.59Z" fill="#E0DFDF"/>
<path d="M259.781 61.6191C295.822 66.2152 326.673 80.0552 349.37 109.388C370.721 136.989 379.254 169.996 374.71 204.544C370.633 235.57 355.627 260.319 333.038 281.491C326.202 278.212 258.411 195.591 251.695 185.812C253.332 177.598 252.294 167.48 252.298 159.086L252.078 99.6294C252.022 87.682 251.088 75.0718 252.893 63.2523C254.757 61.687 257.381 61.8947 259.781 61.6191Z" fill="#949495"/>
<path d="M931.43 360.657C944.128 356.864 1043.01 372.093 1066.01 372.381C1066.08 372.529 1066.15 372.676 1066.22 372.824C1066.54 373.479 1066.89 374.178 1067.08 374.885C1069.04 382.304 1067.47 441.785 1067.48 453.045C1067.48 525.368 1068.93 598.015 1067.34 670.305C1067.28 673.204 1067.22 675.429 1065.71 678L0.673697 678.132L0.615021 662.275C0.535559 608.057 -1.03931 553.3 1.18444 499.166C17.9846 508.649 78.4455 556.998 88.9873 559.992C92.8957 561.102 163.827 545.453 177.287 544.635C199.265 543.305 222.162 547.618 243.992 550.257C252.298 551.263 261.506 553.096 269.835 552.302C278.221 539.991 283.835 523.995 290.495 510.486L338.596 412.599C343.288 402.864 351.134 382.607 357.24 375.208C360.67 371.055 387.364 370.995 394.052 370.556C411.258 369.422 428.996 367.442 446.214 368.368C459.83 369.099 473.067 372.796 486.261 375.983C502.68 379.948 519.89 383.274 535.711 389.184C557.398 397.286 578.341 410.271 598.906 421.013C608.126 425.828 638.322 443.17 645.441 444.664C647.773 445.151 651.646 442.588 653.827 441.517C670.973 433.1 759.636 383.941 769.239 383.981C788.242 384.053 828.185 393.952 843.131 390.55C864.602 385.662 886.532 375.719 907.312 368.228C914.959 365.469 923.364 361.492 931.43 360.657Z" fill="#E0DFDF"/>
</svg>
