<svg preserveAspectRatio="none"  width="650" height="237" viewBox="0 0 650 237" fill="none" xmlns="http://www.w3.org/2000/svg">
<path d="M648.287 37.7538C646.802 39.4421 646.085 39.9302 642.904 41.4173C635.175 45.0307 634.748 45.4244 634.674 49.0154C634.627 51.2662 634.553 51.4664 633.763 51.4664C632.647 51.4664 631.827 49.467 631.585 46.1538C631.423 43.9235 631.552 43.3775 632.82 40.9271C634.518 37.6479 638.634 35.7583 645.416 35.1446C648.758 34.8423 650 34.9329 650 35.479C650 35.6588 649.229 36.6825 648.287 37.7538ZM646.114 202.995C641.492 202.793 638.673 202.165 635.806 200.7C631.291 198.393 629.554 195.648 630.083 191.657C630.57 187.979 630.886 187.042 631.811 186.525C633.016 185.853 633.582 186.281 633.157 187.543C632.617 189.145 633.071 191.253 634.225 192.499C635.3 193.66 636.63 194.425 640.453 196.084C645.858 198.43 649.112 200.784 649.112 202.348V203.126L646.114 202.995ZM634.198 67.7459C633.309 71.1144 632.171 72.7138 629.016 75.0274C627.487 76.1482 625.219 76.6482 623.839 76.1686C622.499 75.7027 622.832 75.1094 625.24 73.6735C626.559 72.8871 628.005 71.8179 628.452 71.2975C629.177 70.455 629.206 70.1909 628.718 68.8878C627.972 66.8929 626.836 65.7574 624.588 64.7585C622.532 63.8449 617.359 62.1282 616.662 62.1282C615.973 62.1282 612.247 60.1344 611.555 59.3957C610.62 58.3983 610.761 56.5296 611.858 55.3843C612.931 54.263 614.466 53.2726 614.901 53.421C615.065 53.4767 615.667 54.025 616.239 54.6394C616.812 55.2539 617.917 56.0249 618.696 56.3528C622.374 57.9009 626.744 61.0117 628.297 63.1871C628.795 63.8847 629.368 64.5659 629.57 64.7011C629.772 64.8362 630.078 65.3594 630.248 65.8638C630.419 66.3681 630.737 66.7201 630.954 66.6459C631.617 66.4198 631.395 61.9683 630.627 60.0932C629.264 56.7622 625.391 53.304 621.101 51.5861C619.777 51.0561 617.994 50.3405 617.14 49.9959C616.285 49.6513 614.351 48.8728 612.843 48.266C609.154 46.7822 605.888 44.7641 605.239 43.5673C604.272 41.7857 604.569 39.6854 606.114 37.3855C606.888 36.2329 607.72 35.1465 607.962 34.9713C608.232 34.7769 609.11 34.6814 610.218 34.7262C611.992 34.798 612.036 34.8217 612.162 35.78C612.483 38.2126 614.918 40.7778 618.91 42.8879C621.186 44.0912 626.021 47.2553 626.021 47.542C626.021 47.6222 626.433 47.9314 626.936 48.2291C628.038 48.8811 631.606 52.8953 632.5 54.4897C634.818 58.6241 635.402 63.1796 634.198 67.7459ZM633.723 174.751C632.982 180.899 630.653 185.084 625.426 189.66C624.067 190.849 621.397 192.739 619.492 193.859C612.311 198.081 611.544 198.703 610.845 200.866C610.285 202.599 610.19 202.696 608.995 202.772C607.306 202.879 606.253 202.302 605.14 200.66C603.51 198.256 603.207 197.009 603.804 195.164C604.732 192.298 608.245 190.199 616.656 187.487C619.699 186.505 625.133 183.696 625.133 183.103C625.133 182.907 625.337 182.676 625.587 182.591C626.337 182.335 628.646 179.631 629.402 178.123C630.084 176.762 630.488 174.096 630.107 173.464C629.771 172.907 629.206 173.145 628.654 174.077C628.355 174.583 627.74 175.381 627.288 175.85C626.835 176.32 626.465 176.825 626.465 176.972C626.465 177.247 623.386 178.962 618.724 181.283C614.779 183.246 614.581 183.364 613.807 184.19C612.809 185.255 611.854 185.05 610.361 183.45C609.291 182.304 609.135 181.893 609.307 180.686C609.607 178.586 611.845 177.225 617.721 175.57C620.791 174.706 624.245 173.172 625.718 172.019C629.404 169.132 628.938 166.31 624.42 164.157C621.992 163 621.528 162.416 622.636 161.908C623.403 161.557 624.708 161.819 627.196 162.823C631.214 164.444 634.288 170.061 633.723 174.751ZM629.419 33.4516C629.163 40.3704 628.887 43.6765 628.555 43.7899C628.287 43.8816 627.7 43.8484 627.252 43.716C626.473 43.4857 626.446 42.8457 626.639 28.7821L626.841 14.0888L610.778 14.0714C584.99 14.0435 575.243 14.083 574.47 14.2184C573.476 14.3924 571.628 13.5304 571.962 13.0492C572.372 12.4591 579.308 12.3304 605.989 12.4179L629.698 12.4956L629.747 17.8878C629.773 20.8535 629.626 27.8572 629.419 33.4516ZM627.353 223.281L627.131 225.732L613.143 225.673C605.45 225.641 592.803 225.598 585.04 225.579C571.851 225.545 570.896 225.513 570.489 225.094C570.146 224.739 570.275 224.566 571.107 224.265C571.977 223.95 573.236 223.905 578.331 224.004C591.238 224.257 623.728 224.402 623.945 224.208C624.415 223.788 624.675 217.993 624.74 206.433C624.811 194.015 624.85 193.759 626.631 194.136C627.028 194.22 627.355 194.36 627.358 194.446C627.514 199.14 627.509 221.553 627.353 223.281ZM627.047 160.547C626.713 160.731 626.145 160.82 625.786 160.744C625.246 160.629 625.134 159.877 625.138 156.404C625.143 154.093 625.118 149.775 625.088 146.81C625.058 143.844 625.056 126.886 625.083 109.126L625.133 76.8341H626.448H627.764L627.709 118.523C627.664 153.446 627.556 160.266 627.047 160.547ZM622.468 39.2049C622.188 40.0894 621.52 40.2193 620.488 39.5898C619.732 39.1292 619.688 38.4305 619.771 28.4343L619.86 17.7702L599.121 17.7064C580.052 17.6479 578.342 17.6087 577.899 17.2205C577.552 16.9168 577.552 16.7237 577.898 16.5322C578.23 16.3492 585.298 16.2514 600.535 16.2191L622.69 16.1721V27.3378C622.69 33.4789 622.591 38.8191 622.468 39.2049ZM620.126 160.747C619.62 160.82 619.025 160.818 618.803 160.742C618.582 160.667 618.446 158.769 618.501 156.526C618.555 154.283 618.548 152.337 618.483 152.202C618.419 152.067 618.39 135.047 618.419 114.378L618.472 76.8L619.471 76.8783L620.47 76.9566L620.554 112.864C620.6 132.612 620.729 151.435 620.841 154.692C621.042 160.522 621.031 160.616 620.126 160.747ZM620.167 221.776C619.872 222.067 618.025 222.108 609.04 222.024C603.115 221.969 593.715 221.926 588.151 221.928C579.454 221.932 577.998 221.88 577.773 221.556C577.629 221.349 577.885 220.947 578.342 220.664C579.162 220.156 579.337 220.151 591.384 220.324C607.086 220.548 616.799 220.499 617.362 220.191C617.641 220.038 617.854 215.876 617.935 209C618.049 199.271 618.144 198.003 618.79 197.609C619.237 197.337 619.675 197.254 619.929 197.393C620.437 197.674 620.667 221.283 620.167 221.776ZM588.047 3.59134C587.359 5.49781 586.977 5.94356 584.621 7.59369C581.312 9.91179 575.444 11.4027 569.701 11.3849C566.119 11.3739 558.582 10.744 557.812 10.3913C556.412 9.75019 557.47 9.55448 562.336 9.55448C566.134 9.55448 567.494 9.46067 568.62 9.12097C570.854 8.44728 573.068 7.27823 574.734 5.8926C576.726 4.23641 582.01 1.4323 584.008 0.971524C586.396 0.420805 588.117 0.493915 588.44 1.15985C588.587 1.46315 588.692 1.76646 588.672 1.83386C588.653 1.9013 588.371 2.69213 588.047 3.59134ZM587.621 23.8097C586.465 24.7206 581.428 25.6557 576.941 25.7925C573.463 25.8984 572.626 25.8416 570.609 25.3626C567.829 24.7025 564.235 22.6614 561.117 19.9712C559.945 18.9601 558.432 17.7083 557.756 17.1894C556.488 16.2165 552.588 14.2419 550.85 13.6922C547.724 12.7039 544.087 11.9114 541.566 11.6691C538.224 11.3479 533.657 11.3031 533.657 11.5914C533.657 11.7008 534.606 11.9245 535.766 12.0887C540.012 12.6894 544.266 14.3492 547.821 16.7913C550.113 18.3659 552.486 19.6016 554.194 20.1103C554.869 20.3112 555.416 20.683 555.416 20.9411C555.416 21.8865 551.173 23.0096 547.764 22.9667C544.009 22.9195 541.527 21.6768 538.14 18.1478C535.245 15.1316 532.73 13.7818 528.547 12.9979C524.226 12.1882 520.812 12.7531 517.724 14.7886C515.734 16.101 514.296 16.3907 513.244 15.6914C512.829 15.4152 512.824 15.1357 513.222 14.4703C513.804 13.4957 517.5 11.4 518.643 11.3956C519.056 11.3937 519.52 11.2807 519.673 11.1439C520.481 10.4222 527.584 9.45992 533.38 9.28689C541.313 9.05005 553.311 10.4521 559.961 12.3931C560.385 12.5169 560.994 12.6182 561.314 12.6182C561.634 12.6182 562.286 12.787 562.763 12.9934C563.24 13.1998 564.7 13.8064 566.007 14.3415C568.153 15.2202 574.515 18.2294 575.62 18.888C576.469 19.3943 581.359 21.0451 582.926 21.3543C583.792 21.5254 585.111 21.6702 585.856 21.6761C588.176 21.6945 589.016 22.71 587.621 23.8097ZM586.999 215.437C586.727 216.142 586.594 216.179 583.832 216.324C579.134 216.57 576.641 217.35 571.205 220.278C567.275 222.394 560.621 225.119 559.381 225.119C558.939 225.119 558.452 225.23 558.3 225.366C557.956 225.673 554.568 226.589 553.778 226.589C553.457 226.589 553.195 226.678 553.195 226.786C553.195 226.894 552.146 227.115 550.864 227.276C542.5 228.328 540.178 228.519 535.61 228.53C531.251 228.541 529.193 228.397 522.111 227.585C520.524 227.403 515.325 226.06 514.184 225.538C513.207 225.09 511.933 223.258 512.203 222.688C512.595 221.861 514.164 222.096 516.338 223.306C519.336 224.974 521.291 225.455 524.303 225.264C529.548 224.932 532.958 223.297 536.772 219.289C539.122 216.819 541.473 215.752 545.254 215.439C546.933 215.3 547.674 215.377 549.466 215.879C550.662 216.214 552.009 216.712 552.459 216.987C553.263 217.478 553.246 217.497 551.348 218.158C550.288 218.527 547.954 219.646 546.161 220.645C542.353 222.767 537.833 224.465 533.336 225.461C531.574 225.852 530.237 226.265 530.366 226.38C530.701 226.679 537.272 226.639 540.725 226.317C544.241 225.989 549.041 224.74 552.441 223.267C553.813 222.672 556.232 221.219 557.818 220.037C565.195 214.537 567.316 213.301 570.714 212.517C573.044 211.98 577.152 212.032 580.901 212.646C585.27 213.362 587.529 214.042 587.328 214.58C587.303 214.647 587.155 215.033 586.999 215.437ZM585.833 236.884C585.285 237.135 584.504 237.011 581.452 236.192C578.333 235.355 577.378 234.948 575.491 233.65C574.255 232.8 572.779 231.786 572.211 231.398C568.756 229.034 566.505 228.453 560.75 228.438C557.211 228.429 556.515 228.364 556.398 228.026C556.169 227.37 560.173 226.964 566.739 226.979C573.183 226.993 576.31 227.354 579.455 228.447C581.607 229.195 582.008 229.433 583.667 230.943C584.789 231.965 586.477 235.02 586.492 236.057C586.497 236.344 586.2 236.716 585.833 236.884ZM512.392 17.7204C512.135 17.9504 497.443 18.0049 446.813 17.9637C378.818 17.9084 248.99 17.9312 179.584 18.0106C157.394 18.036 139.067 17.9617 138.856 17.8456C138.646 17.7294 138.59 17.388 138.733 17.087L138.992 16.5398L164.585 16.5333C178.66 16.5296 249.725 16.494 322.507 16.4537C395.288 16.4134 467.682 16.4304 483.382 16.4913C509.511 16.5928 511.961 16.6369 512.325 17.013C512.545 17.239 512.575 17.5574 512.392 17.7204ZM512.262 14.1091C512.184 14.1203 446.577 14.1654 366.468 14.2095C286.36 14.2536 202.455 14.3023 180.012 14.3179C157.569 14.3334 139.111 14.2934 138.994 14.2289C138.464 13.9365 139.413 12.9053 140.329 12.7784C141.558 12.6082 465.793 12.6828 492.803 12.8595L512.12 12.9859L512.262 13.5374C512.34 13.8407 512.34 14.0979 512.262 14.1091ZM511.044 224.606C510.707 224.9 504.64 224.927 469.643 224.79C388.894 224.474 356.856 224.386 274.992 224.259C229.321 224.188 180.264 224.077 165.976 224.012C151.688 223.948 139.435 223.895 138.746 223.894C137.702 223.893 137.518 223.802 137.636 223.342L137.778 222.79L159.266 222.843C171.084 222.872 205.054 222.89 234.756 222.884C328.817 222.863 385.926 222.915 403.103 223.038C412.262 223.103 440.237 223.222 465.269 223.302C490.301 223.382 510.933 223.5 511.118 223.563C511.565 223.715 511.532 224.181 511.044 224.606ZM510.311 221.116C509.4 221.308 426.756 221.021 426.175 220.823C425.931 220.74 373.332 220.624 309.287 220.565C216.694 220.48 143.346 220.336 138.08 220.229C137.731 220.222 137.552 219.994 137.636 219.665L137.778 219.114L259.894 219.192C327.058 219.235 387.306 219.31 393.778 219.358C405.621 219.447 418.776 219.484 444.179 219.503C472.002 219.523 510.217 219.73 510.608 219.864C511.268 220.089 511.063 220.956 510.311 221.116ZM137.902 14.7628C137.112 15.6677 135.53 15.4636 133.423 14.1848C131.402 12.9584 128.044 11.8829 126.236 11.8829C124.78 11.8829 120.062 12.7929 119.868 13.1111C119.786 13.2444 119.448 13.3535 119.117 13.3535C118.346 13.3535 114.982 15.8015 113.559 17.3976C110.955 20.3189 107.288 21.932 103.251 21.932C101.612 21.932 100.705 21.7471 98.7456 21.0128C97.3964 20.5073 96.2849 19.9581 96.2756 19.7923C96.2663 19.6266 97.0339 19.2727 97.9813 19.0059C98.9287 18.7391 100.851 17.7996 102.253 16.918C106.326 14.3577 113.082 12.0108 118.906 11.1339C120.824 10.845 120.856 10.8255 119.701 10.6465C117.866 10.3621 112.409 10.5449 108.692 11.0154C101.311 11.9498 95.5591 14.1078 91.5781 17.4367C89.5954 19.0947 84.5707 22.5341 82.9429 23.3476C81.3394 24.149 78.5496 24.9259 76.5286 25.134C72.8494 25.5129 63.5141 24.1927 62.5037 23.1508C61.8913 22.5192 61.9582 21.3039 62.6212 21.0142C62.9265 20.8808 64.3878 20.7142 65.8685 20.6439C69.7287 20.4608 72.5077 19.5768 77.7348 16.8695C86.1932 12.4886 93.8605 10.2264 104.03 9.11153C105.54 8.94593 110.059 8.82906 114.465 8.84165C120.869 8.85999 122.921 8.95787 126.126 9.39802C131.109 10.0823 134.886 11.147 136.872 12.4279C138.526 13.4946 138.689 13.8629 137.902 14.7628ZM134.747 223.553C132.099 226.316 125.12 227.673 113.577 227.669C108.766 227.668 106.506 227.539 102.136 227.017C99.1399 226.66 96.1425 226.206 95.4747 226.008C94.8068 225.81 93.3655 225.465 92.2718 225.241C91.178 225.016 89.4195 224.511 88.364 224.118C87.3085 223.725 86.3318 223.403 86.1936 223.403C85.6338 223.403 81.119 221.441 76.8305 219.335C71.7013 216.815 68.0034 215.606 64.7849 215.395C62.7537 215.263 62.5798 215.198 62.3952 214.503C62.1406 213.546 63.4546 212.838 66.8908 212.083C68.8833 211.645 70.2978 211.531 73.8337 211.525C77.8895 211.517 78.4537 211.574 80.3442 212.187C83.039 213.062 86.4705 215.198 89.0717 217.619C92.9505 221.231 99.0787 224.082 105.279 225.161C108.382 225.701 117.574 226.085 117.574 225.675C117.574 225.538 116.824 225.36 115.908 225.278C114.992 225.196 112.78 224.741 110.991 224.267C107.746 223.407 105.551 222.342 100.017 218.94C98.7863 218.184 97.0378 217.324 96.1311 217.029C94.2644 216.421 94.1677 216.279 95.2596 215.749C99.0065 213.931 104.338 213.87 107.399 215.611C108.8 216.408 111.531 218.68 112.199 219.604C112.653 220.232 115.192 222.081 116.623 222.826C119.802 224.481 125.662 225.113 129.026 224.164C129.932 223.908 131.408 223.246 132.306 222.693C134.012 221.643 135.807 221.342 135.746 222.116C135.728 222.352 135.278 222.999 134.747 223.553ZM92.7992 9.52276C91.6902 9.90107 85.9215 10.4117 82.7984 10.4081C70.8396 10.3941 64.732 7.90828 63.3604 2.49679C62.6343 -0.368383 62.8314 -0.461947 67.1678 0.690108C70.9908 1.70579 73.6453 2.97987 77.1642 5.48803C80.5348 7.89051 82.868 8.5257 88.8059 8.65734C92.0282 8.72876 93.1503 8.8375 93.1503 9.07831C93.1503 9.25689 92.9923 9.4569 92.7992 9.52276ZM88.3723 227.539C84.0473 227.486 80.8146 227.943 78.9404 228.871C78.3298 229.173 76.9342 230.079 75.8391 230.885C71.0511 234.406 66.4411 236.491 63.7567 236.349C62.3148 236.272 62.2857 236.247 62.1523 234.958C61.8828 232.353 64.6424 229.372 68.727 227.855C74.1606 225.837 76.6228 225.583 85.8828 226.082C91.0687 226.361 92.2622 226.578 92.2622 227.24C92.2622 227.515 91.465 227.576 88.3723 227.539ZM78.9918 12.8313C78.4851 13.2659 78.9353 13.2629 50.2436 13.0185C31.3316 12.8574 25.6905 12.877 25.4358 13.1044C24.8983 13.5844 24.7293 17.1948 24.6337 30.2387C24.5526 41.3044 24.4686 42.6156 23.8265 42.8391C23.4322 42.9762 22.7813 43.0189 22.38 42.9339C21.7119 42.7924 21.6599 41.449 21.7646 27.0248L21.8788 11.2702L32.7583 11.2776C55.1662 11.2925 76.8805 11.459 78.0021 11.6245C79.2399 11.8073 79.6307 12.2836 78.9918 12.8313ZM77.6664 224.366C76.8267 224.614 23.1494 224.704 21.5154 224.46C20.7428 224.345 20.7169 223.671 20.9169 208.859C21.0318 200.345 21.1454 193.351 21.1693 193.317C21.3098 193.119 22.953 193.305 23.3305 193.562C23.6136 193.755 23.7348 195.916 23.6569 199.383C23.5887 202.417 23.4987 208.866 23.4569 213.715C23.386 221.931 23.4349 222.553 24.1757 222.852C24.8108 223.108 30.2207 223.168 51.1 223.15C77.0695 223.128 78.4963 223.168 78.4963 223.915C78.4963 224.028 78.1229 224.232 77.6664 224.366ZM72.3523 220.56C71.7943 220.75 32.3714 220.991 29.8816 220.82L27.5532 220.659L27.6024 208.98L27.6516 197.3L28.6207 197.224C30.5974 197.069 30.6674 197.536 30.319 208.561C30.0403 217.381 30.0855 218.927 30.6292 219.177C31.1064 219.395 36.1466 219.446 50.7674 219.38C61.4933 219.332 70.6942 219.382 71.2137 219.491C72.2076 219.699 72.9183 220.367 72.3523 220.56ZM71.8143 16.1993C71.6226 16.4839 71.1151 16.791 70.6865 16.8817C70.258 16.9725 61.4801 16.9705 51.1801 16.8771C37.3483 16.7519 32.3711 16.7807 32.14 16.9871C31.9679 17.1408 31.7162 22.1489 31.5807 28.1163C31.3781 37.035 31.2188 39.067 30.6858 39.5328C29.8326 40.2784 29.0859 40.1072 28.6691 39.0704C28.3069 38.1696 28.2804 15.898 28.6409 15.3795C28.811 15.1348 33.4035 15.069 50.2986 15.069C73.0193 15.069 72.5908 15.0467 71.8143 16.1993ZM45.4015 43.2565C44.2547 45.3092 39.5983 47.7079 33.2023 49.5409C31.8398 49.9314 29.2521 51.075 27.3494 52.1276C24.651 53.6204 23.5075 54.4938 21.8742 56.3098C19.985 58.4103 19.7687 58.8385 19.3263 61.3548C18.9611 63.4319 18.9697 64.1745 19.3617 64.3908C19.7575 64.6093 19.8806 64.528 19.8806 64.0481C19.8806 63.2347 21.4937 61.0502 23.0178 59.7997C24.4819 58.5985 27.1322 57.0806 31.1371 55.1497C32.8068 54.3447 34.5581 53.2693 35.0288 52.76C35.4996 52.2507 36.1456 51.834 36.4644 51.834C38.0228 51.834 40.3073 54.2962 40.3073 55.9757C40.3073 58.2982 37.9143 59.7462 30.5139 61.9015C26.5426 63.0582 23.3647 64.8543 22.1692 66.618C21.0729 68.2352 21.0361 68.5123 21.6932 70.2034C22.1677 71.4246 22.7352 71.829 26.2366 73.4415C27.6742 74.1036 27.5095 74.7914 25.8584 75.0201C23.3583 75.3664 20.5277 74.0742 18.3748 71.6036C13.7029 66.2424 14.8087 56.8505 20.929 49.9092C22.4877 48.1414 27.7193 44.1812 32.9568 40.8046C36.2417 38.6867 38.087 36.7989 38.087 35.556C38.087 34.4979 39.4314 33.9065 41.3593 34.1165C42.3713 34.2267 42.8536 34.5207 43.704 35.546C46.0282 38.348 46.6262 41.0644 45.4015 43.2565ZM45.2087 197.083C44.8248 198.461 43.6393 200.601 42.678 201.651C42.1952 202.178 41.7487 202.324 40.6289 202.321C38.5758 202.316 38.2557 202.115 37.9467 200.637C37.7948 199.911 37.0901 198.643 36.3806 197.819C35.0663 196.291 34.3873 195.818 29.4911 193.011C25.2547 190.582 22.9521 188.737 20.4681 185.78C17.0172 181.673 15.8833 179.141 15.584 174.874C15.1658 168.91 18.1411 163.182 22.5782 161.408C23.6101 160.995 24.7931 160.658 25.2071 160.658C26.0343 160.658 27.4296 161.394 27.4296 161.83C27.4296 161.982 26.3466 162.719 25.0229 163.467C23.6727 164.23 22.2815 165.311 21.8539 165.929C21.1827 166.899 21.1598 167.208 21.6621 168.515C22.6715 171.14 25.9522 172.981 32.9803 174.865C35.2968 175.486 35.8379 175.745 37.7884 177.16C39.2087 178.19 39.4192 178.516 39.4192 179.689C39.4192 180.775 39.1692 181.236 38.1245 182.074C35.9574 183.812 35.6109 183.881 34.5895 182.776C34.1028 182.25 32.4427 181.18 30.9002 180.398C25.4932 177.659 22.4174 175.16 20.5294 171.974C20.1139 171.273 19.5981 170.639 19.3832 170.566C18.8345 170.379 18.8951 174.974 19.4645 176.728C20.0836 178.636 23.3026 182.289 25.6739 183.775C27.5165 184.93 31.9687 186.875 35.8969 188.241C38.623 189.189 43.3437 191.732 44.3071 192.772C45.3195 193.864 45.6563 195.475 45.2087 197.083ZM31.3759 159.722C31.2262 159.856 30.6267 159.928 30.0437 159.883L28.9838 159.8L28.8674 117.82C28.7423 72.7247 28.629 75.1316 30.8441 75.816C31.6152 76.0543 31.6481 77.7724 31.6481 117.771C31.6481 140.71 31.5256 159.588 31.3759 159.722ZM24.0906 159.836C22.0573 160.266 22.1517 162.415 22.24 117.718L22.3229 75.7311H23.4331H24.5432L24.6457 117.714C24.7357 154.599 24.6683 159.713 24.0906 159.836ZM19.3757 46.3135C18.7305 49.3273 17.9842 50.7186 16.9684 50.8012C16.1613 50.8668 16.1047 50.7021 16.0839 48.2276C16.0635 45.7932 15.961 45.4819 14.7891 44.2941C13.8779 43.3706 12.812 42.7468 11.0367 42.0984C4.23963 39.6157 -0.869876 35.9083 0.123841 34.1802C0.365955 33.7591 0.696788 33.7226 3.14424 33.8465C9.065 34.1463 12.5334 35.1774 15.8324 37.6183C19.1673 40.0858 20.178 42.5661 19.3757 46.3135ZM18.7688 192.317C18.675 192.369 18.4758 193.038 18.326 193.803C17.3381 198.853 12.3928 201.559 3.33939 202.003C0.376571 202.149 0.341994 202.144 0.341994 201.546C0.341994 200.732 2.59974 198.216 4.17559 197.274C4.87578 196.855 7.20144 195.711 9.3437 194.731C11.486 193.751 13.5978 192.66 14.0368 192.306C15.3028 191.286 15.964 189.652 15.8731 187.768C15.8268 186.81 15.8104 185.888 15.8365 185.719C15.9076 185.261 16.6797 185.35 17.1886 185.875C17.8178 186.523 19.1828 192.089 18.7688 192.317Z" fill="black" fill-opacity="0.46"/>
</svg>
