<svg width="389" height="299" viewBox="0 0 389 299" fill="none" xmlns="http://www.w3.org/2000/svg">
<rect x="52.5" y="36.5" width="296" height="237" rx="11.5" fill="white" stroke="#888888"/>
<rect x="284" width="105" height="94" rx="9" fill="#4065E0"/>
<rect y="94" width="105" height="95" rx="9" fill="#E07840"/>
<rect x="189" y="247" width="57" height="52" rx="9" fill="#72E040"/>
<path d="M262.367 146.763L215.333 158.017V196L248.533 183.339L262.367 146.763Z" fill="#4E4E4E" stroke="#4E4E4E"/>
<path d="M162.767 146.763L209.8 158.017V196L176.6 183.339L162.767 146.763Z" fill="#4E4E4E" stroke="#4E4E4E"/>
<path d="M265.133 132.695L216.717 152.39L263.75 141.136L265.133 132.695Z" fill="#37A69F" stroke="#37A69F"/>
<path d="M160 132.695L208.417 152.39L161.383 141.136L160 132.695Z" fill="#37A69F" stroke="#37A69F"/>
<path d="M258.217 121.441L218.1 146.763L258.11 129.881L258.217 121.441Z" fill="#2EC269" stroke="#2EC269"/>
<path d="M166.917 121.441L207.033 146.763L167.023 129.881L166.917 121.441Z" fill="#2EC269" stroke="#2EC269"/>
<path d="M249.917 113L219.483 141.136L249.917 121.441V113Z" fill="#C1BA13" stroke="#C1BA13"/>
<path d="M175.217 113L205.65 141.136L175.217 121.441V113Z" fill="#C1BA13" stroke="#C1BA13"/>
</svg>
